<?xml version="1.0" encoding="UTF-8" standalone="no"?>
<!DOCTYPE svg PUBLIC "-//W3C//DTD SVG 1.1//EN"
 "http://www.w3.org/Graphics/SVG/1.1/DTD/svg11.dtd">
<!-- Generated by graphviz version 10.0.1 (20240210.2158)
 -->
<!-- Pages: 1 -->
<svg width="230pt" height="284pt"
 viewBox="0.00 0.00 230.09 283.75" xmlns="http://www.w3.org/2000/svg" xmlns:xlink="http://www.w3.org/1999/xlink">
<g id="graph0" class="graph" transform="scale(1 1) rotate(0) translate(4 279.75)">
<polygon fill="white" stroke="none" points="-4,4 -4,-279.75 226.09,-279.75 226.09,4 -4,4"/>
<text text-anchor="middle" x="111.04" y="-6.45" font-family="Times New Roman,serif" font-size="14.00">true &amp; ~B ! A</text>
<!-- n001 -->
<g id="node1" class="node">
<title>n001</title>
<ellipse fill="none" stroke="black" cx="81.09" cy="-257.75" rx="53.56" ry="18"/>
<text text-anchor="middle" x="81.09" y="-252.32" font-family="Times New Roman,serif" font-size="14.00">t B ~ &amp; A !</text>
</g>
<!-- n002 -->
<g id="node2" class="node">
<title>n002</title>
<ellipse fill="none" stroke="black" cx="39.09" cy="-185.75" rx="39.09" ry="18"/>
<text text-anchor="middle" x="39.09" y="-180.32" font-family="Times New Roman,serif" font-size="14.00">t B ~ &amp;</text>
</g>
<!-- n001&#45;&#45;n002 -->
<g id="edge1" class="edge">
<title>n001&#45;&#45;n002</title>
<path fill="none" stroke="black" d="M70.92,-239.8C64.32,-228.8 55.75,-214.51 49.16,-203.54"/>
</g>
<!-- n003 -->
<g id="node3" class="node">
<title>n003</title>
<ellipse fill="none" stroke="black" cx="123.09" cy="-185.75" rx="27" ry="18"/>
<text text-anchor="middle" x="123.09" y="-180.32" font-family="Times New Roman,serif" font-size="14.00">A</text>
</g>
<!-- n001&#45;&#45;n003 -->
<g id="edge2" class="edge">
<title>n001&#45;&#45;n003</title>
<path fill="none" stroke="black" d="M91.26,-239.8C98.05,-228.48 106.94,-213.67 113.59,-202.58"/>
</g>
<!-- n004 -->
<g id="node4" class="node">
<title>n004</title>
<ellipse fill="none" stroke="black" cx="87.09" cy="-113.75" rx="27" ry="18"/>
<text text-anchor="middle" x="87.09" y="-108.33" font-family="Times New Roman,serif" font-size="14.00">t</text>
</g>
<!-- n003&#45;&#45;n004 -->
<g id="edge3" class="edge">
<title>n003&#45;&#45;n004</title>
<path fill="none" stroke="black" d="M114.74,-168.51C108.92,-157.21 101.2,-142.19 95.39,-130.9"/>
</g>
<!-- n005 -->
<g id="node5" class="node">
<title>n005</title>
<ellipse fill="none" stroke="black" cx="159.09" cy="-113.75" rx="27" ry="18"/>
<text text-anchor="middle" x="159.09" y="-108.33" font-family="Times New Roman,serif" font-size="14.00">B ~</text>
</g>
<!-- n003&#45;&#45;n005 -->
<g id="edge4" class="edge">
<title>n003&#45;&#45;n005</title>
<path fill="none" stroke="black" d="M131.44,-168.51C137.25,-157.21 144.98,-142.19 150.78,-130.9"/>
</g>
<!-- n006 -->
<g id="node6" class="node">
<title>n006</title>
<ellipse fill="none" stroke="black" cx="123.09" cy="-41.75" rx="27" ry="18"/>
<text text-anchor="middle" x="123.09" y="-36.33" font-family="Times New Roman,serif" font-size="14.00">B</text>
</g>
<!-- n005&#45;&#45;n006 -->
<g id="edge5" class="edge">
<title>n005&#45;&#45;n006</title>
<path fill="none" stroke="black" d="M150.74,-96.51C144.92,-85.21 137.2,-70.19 131.39,-58.9"/>
</g>
<!-- n007 -->
<g id="node7" class="node">
<title>n007</title>
<ellipse fill="none" stroke="black" cx="195.09" cy="-41.75" rx="27" ry="18"/>
<text text-anchor="middle" x="195.09" y="-36.33" font-family="Times New Roman,serif" font-size="14.00">~</text>
</g>
<!-- n005&#45;&#45;n007 -->
<g id="edge6" class="edge">
<title>n005&#45;&#45;n007</title>
<path fill="none" stroke="black" d="M167.44,-96.51C173.25,-85.21 180.98,-70.19 186.78,-58.9"/>
</g>
</g>
</svg>
